# xmcd
#
# Track frame offsets:
#	150
#	17485
#	38167
#	53660
#	70532
#	90832
#	111617
#	116322
#	135805
#	141558
#	157850
#	177417
#	185435
#	207175
#	228466
#
# Disc length: 3297 seconds
#
# Revision: 0
# Processed by: cddbd v1.4PL0 Copyright (c) Steve Scherf et al.
# Submitted via: dBpowerAMP V4.0
#
DISCID=bc0cdf0f
DTITLE=Conya Doss - Poem About Ms Doss
DYEAR=1900
DGENRE=Soul
TTITLE0=Good Good
TTITLE1=You Really Hurt Me
TTITLE2=One More Try
TTITLE3=Coffee
TTITLE4=Starship
TTITLE5=All Because of You
TTITLE6=Selfish One (Interlude)
TTITLE7=That's Not Love
TTITLE8=Zoning in My Dome (Interlude)
TTITLE9=Feelin' You
TTITLE10=So Fly
TTITLE11=Sorry (Interlude)
TTITLE12=Meantime
TTITLE13=Smile Again
TTITLE14=Heaven
EXTD=
EXTT0=
EXTT1=
EXTT2=
EXTT3=
EXTT4=
EXTT5=
EXTT6=
EXTT7=
EXTT8=
EXTT9=
EXTT10=
EXTT11=
EXTT12=
EXTT13=
EXTT14=
PLAYORDER=
